<mxfile host="app.diagrams.net" modified="2022-01-10T07:01:54.910Z" agent="5.0 (Macintosh; Intel Mac OS X 10_14_6) AppleWebKit/537.36 (KHTML, like Gecko) Chrome/96.0.4664.110 Safari/537.36" etag="wHsyHJBwqtZHasW-mgCp" version="16.2.2" type="github">
  <diagram id="C5RBs43oDa-KdzZeNtuy" name="Page-1">
    <mxGraphModel dx="2013" dy="708" grid="1" gridSize="10" guides="1" tooltips="1" connect="1" arrows="1" fold="1" page="1" pageScale="1" pageWidth="827" pageHeight="1169" math="0" shadow="0">
      <root>
        <mxCell id="WIyWlLk6GJQsqaUBKTNV-0" />
        <mxCell id="WIyWlLk6GJQsqaUBKTNV-1" parent="WIyWlLk6GJQsqaUBKTNV-0" />
        <mxCell id="cQjFHLXVAHLceUW5Iy4G-0" value="" style="group" vertex="1" connectable="0" parent="WIyWlLk6GJQsqaUBKTNV-1">
          <mxGeometry x="-650" y="160" width="160" height="50" as="geometry" />
        </mxCell>
        <mxCell id="cQjFHLXVAHLceUW5Iy4G-1" value="" style="group" vertex="1" connectable="0" parent="cQjFHLXVAHLceUW5Iy4G-0">
          <mxGeometry width="160" height="30" as="geometry" />
        </mxCell>
        <mxCell id="cQjFHLXVAHLceUW5Iy4G-2" value="" style="rounded=0;whiteSpace=wrap;html=1;" vertex="1" parent="cQjFHLXVAHLceUW5Iy4G-1">
          <mxGeometry width="40" height="30" as="geometry" />
        </mxCell>
        <mxCell id="cQjFHLXVAHLceUW5Iy4G-3" value="" style="rounded=0;whiteSpace=wrap;html=1;" vertex="1" parent="cQjFHLXVAHLceUW5Iy4G-1">
          <mxGeometry x="40" width="40" height="30" as="geometry" />
        </mxCell>
        <mxCell id="cQjFHLXVAHLceUW5Iy4G-4" value="" style="rounded=0;whiteSpace=wrap;html=1;" vertex="1" parent="cQjFHLXVAHLceUW5Iy4G-1">
          <mxGeometry x="80" width="40" height="30" as="geometry" />
        </mxCell>
        <mxCell id="cQjFHLXVAHLceUW5Iy4G-5" value="" style="rounded=0;whiteSpace=wrap;html=1;" vertex="1" parent="cQjFHLXVAHLceUW5Iy4G-1">
          <mxGeometry x="120" width="40" height="30" as="geometry" />
        </mxCell>
        <mxCell id="cQjFHLXVAHLceUW5Iy4G-6" value="实时队列" style="text;html=1;align=center;verticalAlign=middle;resizable=0;points=[];autosize=1;strokeColor=none;fillColor=none;" vertex="1" parent="cQjFHLXVAHLceUW5Iy4G-0">
          <mxGeometry x="50" y="30" width="60" height="20" as="geometry" />
        </mxCell>
        <mxCell id="cQjFHLXVAHLceUW5Iy4G-7" value="" style="group" vertex="1" connectable="0" parent="WIyWlLk6GJQsqaUBKTNV-1">
          <mxGeometry x="-650" y="230" width="160" height="50" as="geometry" />
        </mxCell>
        <mxCell id="cQjFHLXVAHLceUW5Iy4G-8" value="" style="group" vertex="1" connectable="0" parent="cQjFHLXVAHLceUW5Iy4G-7">
          <mxGeometry width="160" height="30" as="geometry" />
        </mxCell>
        <mxCell id="cQjFHLXVAHLceUW5Iy4G-9" value="" style="rounded=0;whiteSpace=wrap;html=1;" vertex="1" parent="cQjFHLXVAHLceUW5Iy4G-8">
          <mxGeometry width="40" height="30" as="geometry" />
        </mxCell>
        <mxCell id="cQjFHLXVAHLceUW5Iy4G-10" value="" style="rounded=0;whiteSpace=wrap;html=1;" vertex="1" parent="cQjFHLXVAHLceUW5Iy4G-8">
          <mxGeometry x="40" width="40" height="30" as="geometry" />
        </mxCell>
        <mxCell id="cQjFHLXVAHLceUW5Iy4G-11" value="" style="rounded=0;whiteSpace=wrap;html=1;" vertex="1" parent="cQjFHLXVAHLceUW5Iy4G-8">
          <mxGeometry x="80" width="40" height="30" as="geometry" />
        </mxCell>
        <mxCell id="cQjFHLXVAHLceUW5Iy4G-12" value="" style="rounded=0;whiteSpace=wrap;html=1;" vertex="1" parent="cQjFHLXVAHLceUW5Iy4G-8">
          <mxGeometry x="120" width="40" height="30" as="geometry" />
        </mxCell>
        <mxCell id="cQjFHLXVAHLceUW5Iy4G-13" value="离线队列" style="text;html=1;align=center;verticalAlign=middle;resizable=0;points=[];autosize=1;strokeColor=none;fillColor=none;" vertex="1" parent="cQjFHLXVAHLceUW5Iy4G-7">
          <mxGeometry x="50" y="30" width="60" height="20" as="geometry" />
        </mxCell>
        <mxCell id="cQjFHLXVAHLceUW5Iy4G-14" value="" style="group" vertex="1" connectable="0" parent="WIyWlLk6GJQsqaUBKTNV-1">
          <mxGeometry x="-650" y="300" width="160" height="50" as="geometry" />
        </mxCell>
        <mxCell id="cQjFHLXVAHLceUW5Iy4G-15" value="" style="group" vertex="1" connectable="0" parent="cQjFHLXVAHLceUW5Iy4G-14">
          <mxGeometry width="160" height="30" as="geometry" />
        </mxCell>
        <mxCell id="cQjFHLXVAHLceUW5Iy4G-16" value="" style="rounded=0;whiteSpace=wrap;html=1;" vertex="1" parent="cQjFHLXVAHLceUW5Iy4G-15">
          <mxGeometry width="40" height="30" as="geometry" />
        </mxCell>
        <mxCell id="cQjFHLXVAHLceUW5Iy4G-17" value="" style="rounded=0;whiteSpace=wrap;html=1;" vertex="1" parent="cQjFHLXVAHLceUW5Iy4G-15">
          <mxGeometry x="40" width="40" height="30" as="geometry" />
        </mxCell>
        <mxCell id="cQjFHLXVAHLceUW5Iy4G-18" value="" style="rounded=0;whiteSpace=wrap;html=1;" vertex="1" parent="cQjFHLXVAHLceUW5Iy4G-15">
          <mxGeometry x="80" width="40" height="30" as="geometry" />
        </mxCell>
        <mxCell id="cQjFHLXVAHLceUW5Iy4G-19" value="" style="rounded=0;whiteSpace=wrap;html=1;" vertex="1" parent="cQjFHLXVAHLceUW5Iy4G-15">
          <mxGeometry x="120" width="40" height="30" as="geometry" />
        </mxCell>
        <mxCell id="cQjFHLXVAHLceUW5Iy4G-20" value="刷数队列" style="text;html=1;align=center;verticalAlign=middle;resizable=0;points=[];autosize=1;strokeColor=none;fillColor=none;" vertex="1" parent="cQjFHLXVAHLceUW5Iy4G-14">
          <mxGeometry x="50" y="30" width="60" height="20" as="geometry" />
        </mxCell>
        <mxCell id="cQjFHLXVAHLceUW5Iy4G-21" value="job dispatch service" style="ellipse;whiteSpace=wrap;html=1;" vertex="1" parent="WIyWlLk6GJQsqaUBKTNV-1">
          <mxGeometry x="-440" y="200" width="120" height="80" as="geometry" />
        </mxCell>
        <mxCell id="cQjFHLXVAHLceUW5Iy4G-22" value="" style="endArrow=classic;html=1;rounded=0;exitX=0;exitY=0;exitDx=0;exitDy=0;" edge="1" parent="WIyWlLk6GJQsqaUBKTNV-1" source="cQjFHLXVAHLceUW5Iy4G-21">
          <mxGeometry width="50" height="50" relative="1" as="geometry">
            <mxPoint x="-420" y="220" as="sourcePoint" />
            <mxPoint x="-490" y="170" as="targetPoint" />
          </mxGeometry>
        </mxCell>
        <mxCell id="cQjFHLXVAHLceUW5Iy4G-23" value="" style="endArrow=classic;html=1;rounded=0;exitX=0;exitY=0.5;exitDx=0;exitDy=0;" edge="1" parent="WIyWlLk6GJQsqaUBKTNV-1" source="cQjFHLXVAHLceUW5Iy4G-21">
          <mxGeometry width="50" height="50" relative="1" as="geometry">
            <mxPoint x="-440" y="250" as="sourcePoint" />
            <mxPoint x="-490" y="240" as="targetPoint" />
          </mxGeometry>
        </mxCell>
        <mxCell id="cQjFHLXVAHLceUW5Iy4G-24" value="" style="endArrow=classic;html=1;rounded=0;exitX=0.092;exitY=0.863;exitDx=0;exitDy=0;exitPerimeter=0;" edge="1" parent="WIyWlLk6GJQsqaUBKTNV-1" source="cQjFHLXVAHLceUW5Iy4G-21">
          <mxGeometry width="50" height="50" relative="1" as="geometry">
            <mxPoint x="-430" y="320" as="sourcePoint" />
            <mxPoint x="-480" y="310" as="targetPoint" />
          </mxGeometry>
        </mxCell>
        <mxCell id="cQjFHLXVAHLceUW5Iy4G-25" value="ETL JOBS&lt;br&gt;FLINK/SPARK" style="rounded=0;whiteSpace=wrap;html=1;" vertex="1" parent="WIyWlLk6GJQsqaUBKTNV-1">
          <mxGeometry x="-300" y="60" width="120" height="60" as="geometry" />
        </mxCell>
        <mxCell id="cQjFHLXVAHLceUW5Iy4G-26" value="" style="rounded=0;whiteSpace=wrap;html=1;" vertex="1" parent="WIyWlLk6GJQsqaUBKTNV-1">
          <mxGeometry x="-130" y="160" width="170" height="290" as="geometry" />
        </mxCell>
        <mxCell id="cQjFHLXVAHLceUW5Iy4G-27" value="hdfs" style="shape=cylinder3;whiteSpace=wrap;html=1;boundedLbl=1;backgroundOutline=1;size=15;" vertex="1" parent="WIyWlLk6GJQsqaUBKTNV-1">
          <mxGeometry x="-80" y="200" width="60" height="80" as="geometry" />
        </mxCell>
        <mxCell id="cQjFHLXVAHLceUW5Iy4G-28" value="s3" style="ellipse;shape=cloud;whiteSpace=wrap;html=1;" vertex="1" parent="WIyWlLk6GJQsqaUBKTNV-1">
          <mxGeometry x="-105" y="310" width="120" height="80" as="geometry" />
        </mxCell>
        <mxCell id="cQjFHLXVAHLceUW5Iy4G-33" value="" style="endArrow=classic;html=1;rounded=0;edgeStyle=orthogonalEdgeStyle;entryX=1;entryY=0.5;entryDx=0;entryDy=0;" edge="1" parent="WIyWlLk6GJQsqaUBKTNV-1" target="cQjFHLXVAHLceUW5Iy4G-25">
          <mxGeometry width="50" height="50" relative="1" as="geometry">
            <mxPoint x="-40" y="160" as="sourcePoint" />
            <mxPoint x="-90" y="110" as="targetPoint" />
            <Array as="points">
              <mxPoint x="-40" y="90" />
            </Array>
          </mxGeometry>
        </mxCell>
      </root>
    </mxGraphModel>
  </diagram>
</mxfile>
